<svg width="24" height="24" viewBox="0 0 24 24" fill="none" xmlns="http://www.w3.org/2000/svg">
<path d="M2.44124 16.6912C2.31374 16.6912 2.18624 16.6425 2.08874 16.545C1.88999 16.35 1.88999 16.035 2.08499 15.8362L8.90999 8.92125C9.00374 8.8275 9.13124 8.77124 9.26624 8.77124C9.40124 8.77124 9.52874 8.82375 9.62249 8.9175L14.6062 13.9387L21.2025 7.44749C21.4012 7.2525 21.7162 7.25624 21.9112 7.45499C22.1062 7.65374 22.1025 7.96874 21.9037 8.16374L14.955 15.0075C14.76 15.2025 14.4412 15.1987 14.2462 15.0037L9.26999 9.98624L2.79749 16.5412C2.69999 16.6425 2.57249 16.6912 2.44124 16.6912Z" fill="#5E5E61"/>
<path d="M4.88622 16.1887C4.88622 17.5387 3.79122 18.63 2.44497 18.63C1.09497 18.63 0.00372314 17.535 0.00372314 16.1887C0.00372314 14.8387 1.09872 13.7475 2.44497 13.7475C3.79122 13.7475 4.88622 14.8425 4.88622 16.1887Z" fill="#DA4765"/>
<path d="M11.715 9.28875C11.715 10.6387 10.62 11.73 9.27377 11.73C7.92377 11.73 6.83252 10.635 6.83252 9.28875C6.83252 7.93875 7.92752 6.8475 9.27377 6.8475C10.62 6.84375 11.715 7.93875 11.715 9.28875Z" fill="#68B19D"/>
<path d="M17.0475 14.6475C17.0475 15.9975 15.9525 17.0888 14.6062 17.0888C13.2562 17.0888 12.165 15.9938 12.165 14.6475C12.165 13.2975 13.26 12.2063 14.6062 12.2063C15.9562 12.2063 17.0475 13.3013 17.0475 14.6475Z" fill="#6590AB"/>
<path d="M21.5587 10.2525C22.907 10.2525 24 9.15951 24 7.81125C24 6.46298 22.907 5.37 21.5587 5.37C20.2105 5.37 19.1175 6.46298 19.1175 7.81125C19.1175 9.15951 20.2105 10.2525 21.5587 10.2525Z" fill="#DA4765"/>
<path d="M21.2362 6.8325C21.2362 7.14375 20.985 7.395 20.6737 7.395C20.3625 7.395 20.1112 7.14375 20.1112 6.8325C20.1112 6.52125 20.3625 6.27 20.6737 6.27C20.985 6.27 21.2362 6.52125 21.2362 6.8325ZM14.31 13.7475C14.31 14.0588 14.0587 14.31 13.7475 14.31C13.4362 14.31 13.185 14.0588 13.185 13.7475C13.185 13.4363 13.4362 13.185 13.7475 13.185C14.0587 13.185 14.31 13.4363 14.31 13.7475ZM9.10498 8.37C9.10498 8.68125 8.85373 8.9325 8.54248 8.9325C8.23123 8.9325 7.97998 8.68125 7.97998 8.37C7.97998 8.05875 8.23123 7.8075 8.54248 7.8075C8.85373 7.81125 9.10498 8.0625 9.10498 8.37ZM2.35498 15.21C2.35498 15.5213 2.10373 15.7725 1.79248 15.7725C1.48123 15.7725 1.22998 15.5213 1.22998 15.21C1.22998 14.8988 1.48123 14.6475 1.79248 14.6475C2.10373 14.6475 2.35498 14.9025 2.35498 15.21Z" fill="#F9F9F9"/>
</svg>
