<svg width="24" height="24" viewBox="0 0 24 24" fill="none" xmlns="http://www.w3.org/2000/svg">
<g clip-path="url(#clip0_20_21)">
<path d="M5.87017 10.0495C5.80422 9.98358 5.71477 9.94653 5.6215 9.94653C5.52823 9.94653 5.43878 9.98358 5.37283 10.0495C5.30688 10.1155 5.26983 10.2049 5.26983 10.2982C5.26983 10.3915 5.30688 10.4809 5.37283 10.5469L7.59939 12.7734C7.63205 12.8061 7.67082 12.832 7.71349 12.8497C7.75615 12.8673 7.80188 12.8764 7.84807 12.8764C7.89425 12.8764 7.93998 12.8673 7.98265 12.8497C8.02531 12.832 8.06408 12.8061 8.09674 12.7734C8.12939 12.7408 8.1553 12.702 8.17297 12.6593C8.19065 12.6167 8.19974 12.5709 8.19974 12.5248C8.19974 12.4786 8.19065 12.4329 8.17297 12.3902C8.1553 12.3475 8.12939 12.3087 8.09674 12.2761L5.87017 10.0495ZM16.4171 10.7527C16.3511 10.6867 16.2617 10.6497 16.1684 10.6497C16.0751 10.6497 15.9857 10.6867 15.9197 10.7527C15.8538 10.8186 15.8167 10.9081 15.8167 11.0013C15.8167 11.0946 15.8538 11.184 15.9197 11.25L18.1463 13.4766C18.2122 13.5425 18.3017 13.5796 18.395 13.5796C18.4882 13.5796 18.5777 13.5425 18.6436 13.4766C18.7096 13.4106 18.7466 13.3212 18.7466 13.2279C18.7466 13.1346 18.7096 13.0452 18.6436 12.9792L16.4171 10.7527ZM4.46392 10.7527C4.39797 10.6867 4.30852 10.6497 4.21525 10.6497C4.12198 10.6497 4.03253 10.6867 3.96658 10.7527C3.90063 10.8186 3.86358 10.9081 3.86358 11.0013C3.86358 11.0946 3.90063 11.184 3.96658 11.25L6.19314 13.4766C6.25909 13.5425 6.34855 13.5796 6.44181 13.5796C6.53509 13.5796 6.62454 13.5425 6.69049 13.4766C6.75644 13.4106 6.79349 13.3212 6.79349 13.2279C6.79349 13.1346 6.75644 13.0452 6.69049 12.9792L4.46392 10.7527ZM24.0071 8.73703C24.0037 8.44682 23.8863 8.16958 23.6802 7.96528C23.474 7.76097 23.1957 7.64603 22.9055 7.64531H14.2533C13.8546 7.64572 13.4608 7.73306 13.0992 7.90125L12.8438 8.01844C12.5845 8.13941 12.302 8.20244 12.016 8.20312H12.0024C11.7055 8.20362 11.4121 8.13864 11.1431 8.01281L10.9008 7.89984C10.5393 7.73166 10.1455 7.64432 9.74674 7.64391H1.09454C0.804473 7.64462 0.526329 7.75943 0.320211 7.96353C0.114093 8.16764 -0.00344943 8.44464 -0.00701904 8.73469C-0.00701904 8.83172 -0.00701904 8.92828 -0.00701904 9.01594C-0.0063314 9.20992 0.0490574 9.39978 0.152786 9.56371C0.256514 9.72763 0.404376 9.85898 0.579388 9.94266L1.09033 10.185C1.1367 10.2071 1.17719 10.2398 1.20848 10.2806C1.23976 10.3213 1.26096 10.3689 1.27033 10.4194L2.03017 14.6902C2.11171 15.1575 2.35549 15.5811 2.7186 15.8865C3.08172 16.1918 3.5409 16.3593 4.01533 16.3594H8.53127C8.97596 16.3588 9.40802 16.2114 9.76042 15.9402C10.1128 15.669 10.3659 15.2891 10.4803 14.8594L11.5256 10.9411C11.5297 10.9261 11.5385 10.9129 11.5508 10.9035C11.5631 10.8941 11.5781 10.889 11.5936 10.8891H12.4064C12.4219 10.889 12.437 10.8941 12.4492 10.9035C12.4615 10.9129 12.4704 10.9261 12.4744 10.9411L13.5197 14.8594C13.6342 15.2891 13.8872 15.669 14.2396 15.9402C14.592 16.2114 15.0241 16.3588 15.4688 16.3594H19.9847C20.4585 16.3597 20.9172 16.1932 21.2804 15.8889C21.6436 15.5847 21.8881 15.1623 21.9708 14.6958L22.7307 10.425C22.74 10.3745 22.7612 10.3269 22.7925 10.2862C22.8238 10.2455 22.8643 10.2127 22.9107 10.1906L23.4216 9.94828C23.5966 9.8646 23.7445 9.73326 23.8482 9.56933C23.9519 9.40541 24.0073 9.21555 24.008 9.02156C24.008 8.92828 24.0075 8.83172 24.0071 8.73469V8.73703ZM23.1202 9.30937L22.6093 9.55172C22.4617 9.62219 22.333 9.72673 22.2338 9.85673C22.1346 9.98673 22.0678 10.1384 22.0388 10.2994L21.2813 14.5702C21.2279 14.875 21.0685 15.1512 20.8313 15.3499C20.594 15.5486 20.2942 15.6571 19.9847 15.6562H15.4688C15.1793 15.656 14.898 15.5603 14.6684 15.3839C14.4388 15.2076 14.2738 14.9604 14.1989 14.6808L13.1536 10.7625C13.1096 10.598 13.0125 10.4526 12.8774 10.3488C12.7423 10.2451 12.5768 10.1888 12.4064 10.1887H11.5936C11.4233 10.1888 11.2578 10.2451 11.1227 10.3488C10.9876 10.4526 10.8905 10.598 10.8464 10.7625L9.80112 14.6808C9.72624 14.9604 9.56124 15.2076 9.33166 15.3839C9.10209 15.5603 8.82076 15.656 8.53127 15.6562H4.01533C3.70659 15.6567 3.40759 15.5482 3.17088 15.35C2.93417 15.1518 2.77492 14.8765 2.72111 14.5725L1.96126 10.2994C1.93226 10.1384 1.86541 9.98673 1.76622 9.85673C1.66703 9.72673 1.53835 9.62219 1.39079 9.55172L0.879857 9.30937C0.824753 9.28308 0.778188 9.24177 0.745517 9.19019C0.712846 9.13862 0.695394 9.07887 0.695169 9.01781C0.695169 8.93016 0.695169 8.83547 0.695169 8.74078C0.696401 8.63584 0.738892 8.53559 0.813454 8.46173C0.888016 8.38787 0.988656 8.34633 1.09361 8.34609H9.74674C10.0424 8.34577 10.3346 8.40975 10.6031 8.53359L10.846 8.64656C11.2076 8.81732 11.6025 8.906 12.0024 8.90625H12.016C12.4047 8.90579 12.7886 8.82053 13.141 8.65641L13.3978 8.53687C13.6663 8.41303 13.9586 8.34906 14.2542 8.34937H22.9055C23.0104 8.34961 23.1109 8.39109 23.1855 8.46485C23.26 8.53861 23.3026 8.63873 23.3039 8.74359C23.3039 8.83734 23.3039 8.93109 23.3039 9.02109C23.3032 9.08149 23.2856 9.14047 23.2531 9.1914C23.2207 9.24234 23.1746 9.28319 23.1202 9.30937ZM17.8233 10.0495C17.7907 10.0169 17.7519 9.99097 17.7092 9.9733C17.6666 9.95562 17.6208 9.94653 17.5746 9.94653C17.5285 9.94653 17.4827 9.95562 17.4401 9.9733C17.3974 9.99097 17.3586 10.0169 17.326 10.0495C17.2933 10.0822 17.2674 10.121 17.2497 10.1636C17.2321 10.2063 17.223 10.252 17.223 10.2982C17.223 10.3444 17.2321 10.3901 17.2497 10.4328C17.2674 10.4754 17.2933 10.5142 17.326 10.5469L19.5525 12.7734C19.5852 12.8061 19.624 12.832 19.6666 12.8497C19.7093 12.8673 19.755 12.8764 19.8012 12.8764C19.8474 12.8764 19.8931 12.8673 19.9358 12.8497C19.9785 12.832 20.0172 12.8061 20.0499 12.7734C20.0825 12.7408 20.1084 12.702 20.1261 12.6593C20.1438 12.6167 20.1529 12.5709 20.1529 12.5248C20.1529 12.4786 20.1438 12.4329 20.1261 12.3902C20.1084 12.3475 20.0825 12.3087 20.0499 12.2761L17.8233 10.0495Z" fill="black"/>
</g>
<defs>
<clipPath id="clip0_20_21">
<rect width="24" height="24" fill="white"/>
</clipPath>
</defs>
</svg>
