<svg width="24" height="24" viewBox="0 0 24 24" fill="none" xmlns="http://www.w3.org/2000/svg">
<path fill-rule="evenodd" clip-rule="evenodd" d="M12 4.96875L15.0469 6.70312L18.0938 8.48438V12V15.5156L15.0469 17.2969L12 19.0312L8.95312 17.2969L5.90625 15.5156V12V8.48438L8.95312 6.70312L12 4.96875Z" fill="#24CF64"/>
<path fill-rule="evenodd" clip-rule="evenodd" d="M12 19.0312L8.95312 17.2969L5.90625 15.5156V12V8.48438L8.95312 6.70312L12 4.96875V19.0312Z" fill="#1AC350"/>
<path fill-rule="evenodd" clip-rule="evenodd" d="M12 6.14062L14.5312 7.59375L17.0625 9.04688V12V14.9531L14.5312 16.4062L12 17.8594L9.46875 16.4062L6.9375 14.9531V12V9.04688L9.46875 7.59375L12 6.14062Z" fill="#24CF64"/>
<path fill-rule="evenodd" clip-rule="evenodd" d="M8.8125 14.9062C9 14.8594 9.89062 14.625 10.1719 14.5312C10.5469 14.4375 10.4062 14.4375 10.7812 14.5781C11.6719 14.9531 12.75 14.9062 13.5469 14.4375C13.9687 14.2031 14.0156 14.1562 14.2969 13.875C15.5625 12.6094 15.5156 10.5469 14.25 9.32812C13.6875 8.8125 12.8906 8.34375 11.7656 8.4375C9.84375 8.57812 8.48438 10.4062 8.85938 12.2344C8.95313 12.75 9.04688 12.7969 9.23438 13.1719C9.23438 13.2656 9.1875 13.4062 9.14063 13.5C9.09375 13.7344 9.04688 13.9687 8.95313 14.2031C8.90625 14.3906 8.8125 14.6719 8.8125 14.9062ZM9.5625 14.1094C9.70312 14.1094 9.9375 14.0156 10.125 13.9687C10.2187 13.9687 10.3125 13.9219 10.4062 13.9219C10.5 13.875 10.5469 13.8281 10.6406 13.9219C10.9219 14.0625 11.2969 14.2031 11.6719 14.25C12.4219 14.3437 13.2656 14.1094 13.7812 13.6406C14.0156 13.4062 14.2031 13.1719 14.3906 12.8437C14.5312 12.5156 14.6719 12.1875 14.6719 11.7187C14.6719 11.0625 14.4844 10.4062 14.0625 9.9375L13.5 9.42187C13.0312 9.09375 12.4219 8.95312 11.8594 8.95312C9.89062 9.09375 8.67188 11.25 9.75 13.0312C9.84375 13.2187 9.79687 13.1719 9.70312 13.5469C9.65625 13.7344 9.60937 13.9687 9.5625 14.1094ZM10.8281 10.1719C10.6406 10.2187 10.5 10.4531 10.4062 10.6406C10.3594 10.9219 10.4062 11.1562 10.5 11.3906C10.6406 11.7187 11.0156 12.1875 11.25 12.375C11.5312 12.6562 11.8125 12.8437 12.2812 13.0312C12.5156 13.125 12.7031 13.2187 13.0312 13.1719C13.3594 13.125 13.6406 12.8437 13.6406 12.4687C13.6406 12.3281 13.5 12.3281 13.4062 12.2812C13.3125 12.2344 12.8906 11.9531 12.7969 12.0469C12.75 12.0469 12.6094 12.2344 12.6094 12.2812C12.5156 12.375 12.4687 12.4687 12.3281 12.4219C11.9531 12.2812 11.5781 12 11.3437 11.6719C11.1094 11.2969 11.2031 11.3906 11.3906 11.1562C11.5312 10.9687 11.4375 10.875 11.2969 10.5C11.2031 10.3125 11.2031 10.0781 10.8281 10.1719Z" fill="#FDFEFD"/>
</svg>
